# MagicaVoxel @ Ephtracy

# group
o 

# material
mtllib Floor.mtl
usemtl palette

# normals
vn -1 0 0
vn 1 0 0
vn 0 0 1
vn 0 0 -1
vn 0 -1 0
vn 0 1 0

# texcoords
vt 0.982422 0.5
vt 0.990234 0.5

# verts
v -0.8 0 0.8
v -0.8 0 0.6
v -0.8 0 0.5
v -0.8 0 0.2
v -0.8 0 0.1
v -0.8 0 -0.2
v -0.8 0 -0.3
v -0.8 0 -0.6
v -0.8 0 -0.7
v -0.8 0 -0.8
v -0.8 0.1 0.8
v -0.8 0.1 0.6
v -0.8 0.1 0.5
v -0.8 0.1 0.2
v -0.8 0.1 0.1
v -0.8 0.1 -0.2
v -0.8 0.1 -0.3
v -0.8 0.1 -0.6
v -0.8 0.1 -0.7
v -0.8 0.1 -0.8
v -0.8 0.2 0.8
v -0.8 0.2 0.6
v -0.8 0.2 0.5
v -0.8 0.2 0.2
v -0.8 0.2 0.1
v -0.8 0.2 -0.2
v -0.8 0.2 -0.3
v -0.8 0.2 -0.6
v -0.8 0.2 -0.7
v -0.8 0.2 -0.8
v -0.8 0.5 0.8
v -0.8 0.5 0.6
v -0.8 0.5 0.5
v -0.8 0.5 0.2
v -0.8 0.5 0.1
v -0.8 0.5 -0.2
v -0.8 0.5 -0.3
v -0.8 0.5 -0.6
v -0.8 0.5 -0.7
v -0.8 0.5 -0.8
v -0.8 0.6 0.8
v -0.8 0.6 0.6
v -0.8 0.6 0.5
v -0.8 0.6 0.2
v -0.8 0.6 0.1
v -0.8 0.6 -0.2
v -0.8 0.6 -0.3
v -0.8 0.6 -0.6
v -0.8 0.6 -0.7
v -0.8 0.6 -0.8
v -0.8 0.9 0.8
v -0.8 0.9 0.6
v -0.8 0.9 0.5
v -0.8 0.9 0.2
v -0.8 0.9 0.1
v -0.8 0.9 -0.2
v -0.8 0.9 -0.3
v -0.8 0.9 -0.6
v -0.8 0.9 -0.7
v -0.8 0.9 -0.8
v -0.8 1 0.8
v -0.8 1 0.6
v -0.8 1 0.5
v -0.8 1 0.2
v -0.8 1 0.1
v -0.8 1 -0.2
v -0.8 1 -0.3
v -0.8 1 -0.6
v -0.8 1 -0.7
v -0.8 1 -0.8
v -0.8 1.3 0.8
v -0.8 1.3 0.6
v -0.8 1.3 0.5
v -0.8 1.3 0.2
v -0.8 1.3 0.1
v -0.8 1.3 -0.2
v -0.8 1.3 -0.3
v -0.8 1.3 -0.6
v -0.8 1.3 -0.7
v -0.8 1.3 -0.8
v -0.8 1.4 0.8
v -0.8 1.4 0.6
v -0.8 1.4 0.5
v -0.8 1.4 0.2
v -0.8 1.4 0.1
v -0.8 1.4 -0.2
v -0.8 1.4 -0.3
v -0.8 1.4 -0.6
v -0.8 1.4 -0.7
v -0.8 1.4 -0.8
v -0.8 1.6 0.8
v -0.8 1.6 0.6
v -0.8 1.6 0.5
v -0.8 1.6 0.2
v -0.8 1.6 0.1
v -0.8 1.6 -0.2
v -0.8 1.6 -0.3
v -0.8 1.6 -0.6
v -0.8 1.6 -0.7
v -0.8 1.6 -0.8
v 0.8 0 0.8
v 0.8 0 -0.8
v 0.8 1.6 0.8
v 0.8 1.6 -0.8
v -0.8 0 0.8
v -0.8 0.1 0.8
v -0.8 0.2 0.8
v -0.8 0.5 0.8
v -0.8 0.6 0.8
v -0.8 0.9 0.8
v -0.8 1 0.8
v -0.8 1.3 0.8
v -0.8 1.4 0.8
v -0.8 1.6 0.8
v -0.5 0 0.8
v -0.5 0.1 0.8
v -0.5 0.2 0.8
v -0.5 0.5 0.8
v -0.5 0.6 0.8
v -0.5 0.9 0.8
v -0.5 1 0.8
v -0.5 1.3 0.8
v -0.5 1.4 0.8
v -0.5 1.6 0.8
v -0.4 0.1 0.8
v -0.4 0.3 0.8
v -0.4 0.4 0.8
v -0.4 0.7 0.8
v -0.4 0.8 0.8
v -0.4 1.1 0.8
v -0.4 1.2 0.8
v -0.4 1.5 0.8
v -0.1 0.1 0.8
v -0.1 0.3 0.8
v -0.1 0.4 0.8
v -0.1 0.7 0.8
v -0.1 0.8 0.8
v -0.1 1.1 0.8
v -0.1 1.2 0.8
v -0.1 1.5 0.8
v 0 0 0.8
v 0 0.1 0.8
v 0 0.2 0.8
v 0 0.5 0.8
v 0 0.6 0.8
v 0 0.9 0.8
v 0 1 0.8
v 0 1.3 0.8
v 0 1.4 0.8
v 0 1.6 0.8
v 0.3 0 0.8
v 0.3 0.1 0.8
v 0.3 0.2 0.8
v 0.3 0.5 0.8
v 0.3 0.6 0.8
v 0.3 0.9 0.8
v 0.3 1 0.8
v 0.3 1.3 0.8
v 0.3 1.4 0.8
v 0.3 1.6 0.8
v 0.4 0.1 0.8
v 0.4 0.3 0.8
v 0.4 0.4 0.8
v 0.4 0.7 0.8
v 0.4 0.8 0.8
v 0.4 1.1 0.8
v 0.4 1.2 0.8
v 0.4 1.5 0.8
v 0.7 0.1 0.8
v 0.7 0.3 0.8
v 0.7 0.4 0.8
v 0.7 0.7 0.8
v 0.7 0.8 0.8
v 0.7 1.1 0.8
v 0.7 1.2 0.8
v 0.7 1.5 0.8
v 0.8 0 0.8
v 0.8 1.6 0.8
v -0.8 0 -0.8
v -0.8 0.1 -0.8
v -0.8 0.2 -0.8
v -0.8 0.5 -0.8
v -0.8 0.6 -0.8
v -0.8 0.9 -0.8
v -0.8 1 -0.8
v -0.8 1.3 -0.8
v -0.8 1.4 -0.8
v -0.8 1.6 -0.8
v -0.5 0 -0.8
v -0.5 0.1 -0.8
v -0.5 0.2 -0.8
v -0.5 0.5 -0.8
v -0.5 0.6 -0.8
v -0.5 0.9 -0.8
v -0.5 1 -0.8
v -0.5 1.3 -0.8
v -0.5 1.4 -0.8
v -0.5 1.6 -0.8
v -0.4 0 -0.8
v -0.4 0.1 -0.8
v -0.4 0.2 -0.8
v -0.4 0.5 -0.8
v -0.4 0.6 -0.8
v -0.4 0.9 -0.8
v -0.4 1 -0.8
v -0.4 1.3 -0.8
v -0.4 1.4 -0.8
v -0.4 1.6 -0.8
v -0.1 0 -0.8
v -0.1 0.1 -0.8
v -0.1 0.2 -0.8
v -0.1 0.5 -0.8
v -0.1 0.6 -0.8
v -0.1 0.9 -0.8
v -0.1 1 -0.8
v -0.1 1.3 -0.8
v -0.1 1.4 -0.8
v -0.1 1.6 -0.8
v 0 0 -0.8
v 0 0.1 -0.8
v 0 0.2 -0.8
v 0 0.5 -0.8
v 0 0.6 -0.8
v 0 0.9 -0.8
v 0 1 -0.8
v 0 1.3 -0.8
v 0 1.4 -0.8
v 0 1.6 -0.8
v 0.3 0 -0.8
v 0.3 0.1 -0.8
v 0.3 0.2 -0.8
v 0.3 0.5 -0.8
v 0.3 0.6 -0.8
v 0.3 0.9 -0.8
v 0.3 1 -0.8
v 0.3 1.3 -0.8
v 0.3 1.4 -0.8
v 0.3 1.6 -0.8
v 0.4 0 -0.8
v 0.4 0.1 -0.8
v 0.4 0.2 -0.8
v 0.4 0.5 -0.8
v 0.4 0.6 -0.8
v 0.4 0.9 -0.8
v 0.4 1 -0.8
v 0.4 1.3 -0.8
v 0.4 1.4 -0.8
v 0.4 1.6 -0.8
v 0.7 0 -0.8
v 0.7 0.1 -0.8
v 0.7 0.2 -0.8
v 0.7 0.5 -0.8
v 0.7 0.6 -0.8
v 0.7 0.9 -0.8
v 0.7 1 -0.8
v 0.7 1.3 -0.8
v 0.7 1.4 -0.8
v 0.7 1.6 -0.8
v 0.8 0 -0.8
v 0.8 1.6 -0.8
v -0.8 0 0.8
v -0.5 0 0.8
v 0 0 0.8
v 0.3 0 0.8
v 0.8 0 0.8
v -0.4 0 0.7
v -0.1 0 0.7
v 0.4 0 0.7
v 0.7 0 0.7
v -0.8 0 0.6
v -0.5 0 0.6
v 0 0 0.6
v 0.3 0 0.6
v -0.8 0 0.5
v -0.5 0 0.5
v 0 0 0.5
v 0.3 0 0.5
v -0.4 0 0.4
v -0.1 0 0.4
v 0.4 0 0.4
v 0.7 0 0.4
v -0.4 0 0.3
v -0.1 0 0.3
v 0.4 0 0.3
v 0.7 0 0.3
v -0.8 0 0.2
v -0.5 0 0.2
v 0 0 0.2
v 0.3 0 0.2
v -0.8 0 0.1
v -0.5 0 0.1
v 0 0 0.1
v 0.3 0 0.1
v -0.4 0 0
v -0.1 0 0
v 0.4 0 0
v 0.7 0 0
v -0.4 0 -0.1
v -0.1 0 -0.1
v 0.4 0 -0.1
v 0.7 0 -0.1
v -0.8 0 -0.2
v -0.5 0 -0.2
v 0 0 -0.2
v 0.3 0 -0.2
v -0.8 0 -0.3
v -0.5 0 -0.3
v 0 0 -0.3
v 0.3 0 -0.3
v -0.4 0 -0.4
v -0.1 0 -0.4
v 0.4 0 -0.4
v 0.7 0 -0.4
v -0.4 0 -0.5
v -0.1 0 -0.5
v 0.4 0 -0.5
v 0.7 0 -0.5
v -0.8 0 -0.6
v -0.5 0 -0.6
v 0 0 -0.6
v 0.3 0 -0.6
v -0.8 0 -0.7
v -0.5 0 -0.7
v 0 0 -0.7
v 0.3 0 -0.7
v -0.8 0 -0.8
v -0.5 0 -0.8
v -0.4 0 -0.8
v -0.1 0 -0.8
v 0 0 -0.8
v 0.3 0 -0.8
v 0.4 0 -0.8
v 0.7 0 -0.8
v 0.8 0 -0.8
v -0.8 1.6 0.8
v -0.5 1.6 0.8
v 0 1.6 0.8
v 0.3 1.6 0.8
v 0.8 1.6 0.8
v -0.4 1.6 0.7
v -0.1 1.6 0.7
v 0.4 1.6 0.7
v 0.7 1.6 0.7
v -0.8 1.6 0.6
v -0.5 1.6 0.6
v 0 1.6 0.6
v 0.3 1.6 0.6
v -0.8 1.6 0.5
v -0.5 1.6 0.5
v 0 1.6 0.5
v 0.3 1.6 0.5
v -0.4 1.6 0.4
v -0.1 1.6 0.4
v 0.4 1.6 0.4
v 0.7 1.6 0.4
v -0.4 1.6 0.3
v -0.1 1.6 0.3
v 0.4 1.6 0.3
v 0.7 1.6 0.3
v -0.8 1.6 0.2
v -0.5 1.6 0.2
v 0 1.6 0.2
v 0.3 1.6 0.2
v -0.8 1.6 0.1
v -0.5 1.6 0.1
v 0 1.6 0.1
v 0.3 1.6 0.1
v -0.4 1.6 0
v -0.1 1.6 0
v 0.4 1.6 0
v 0.7 1.6 0
v -0.4 1.6 -0.1
v -0.1 1.6 -0.1
v 0.4 1.6 -0.1
v 0.7 1.6 -0.1
v -0.8 1.6 -0.2
v -0.5 1.6 -0.2
v 0 1.6 -0.2
v 0.3 1.6 -0.2
v -0.8 1.6 -0.3
v -0.5 1.6 -0.3
v 0 1.6 -0.3
v 0.3 1.6 -0.3
v -0.4 1.6 -0.4
v -0.1 1.6 -0.4
v 0.4 1.6 -0.4
v 0.7 1.6 -0.4
v -0.4 1.6 -0.5
v -0.1 1.6 -0.5
v 0.4 1.6 -0.5
v 0.7 1.6 -0.5
v -0.8 1.6 -0.6
v -0.5 1.6 -0.6
v 0 1.6 -0.6
v 0.3 1.6 -0.6
v -0.8 1.6 -0.7
v -0.5 1.6 -0.7
v 0 1.6 -0.7
v 0.3 1.6 -0.7
v -0.8 1.6 -0.8
v -0.5 1.6 -0.8
v -0.4 1.6 -0.8
v -0.1 1.6 -0.8
v 0 1.6 -0.8
v 0.3 1.6 -0.8
v 0.4 1.6 -0.8
v 0.7 1.6 -0.8
v 0.8 1.6 -0.8

# faces
f 11/1/1 2/1/1 1/1/1
f 12/2/1 3/2/1 2/2/1
f 12/1/1 2/1/1 11/1/1
f 13/1/1 4/1/1 3/1/1
f 13/2/1 3/2/1 12/2/1
f 14/2/1 5/2/1 4/2/1
f 14/1/1 4/1/1 13/1/1
f 15/1/1 6/1/1 5/1/1
f 15/2/1 5/2/1 14/2/1
f 16/2/1 7/2/1 6/2/1
f 16/1/1 6/1/1 15/1/1
f 17/1/1 8/1/1 7/1/1
f 17/2/1 7/2/1 16/2/1
f 18/2/1 9/2/1 8/2/1
f 18/1/1 8/1/1 17/1/1
f 19/1/1 10/1/1 9/1/1
f 19/2/1 9/2/1 18/2/1
f 20/1/1 10/1/1 19/1/1
f 21/2/1 18/2/1 17/2/1
f 21/2/1 12/2/1 11/2/1
f 21/2/1 20/2/1 19/2/1
f 21/2/1 19/2/1 18/2/1
f 21/2/1 17/2/1 16/2/1
f 21/2/1 16/2/1 15/2/1
f 21/2/1 15/2/1 14/2/1
f 21/2/1 14/2/1 13/2/1
f 21/2/1 13/2/1 12/2/1
f 22/2/1 20/2/1 21/2/1
f 23/2/1 20/2/1 22/2/1
f 24/2/1 20/2/1 23/2/1
f 25/2/1 20/2/1 24/2/1
f 26/2/1 20/2/1 25/2/1
f 27/2/1 20/2/1 26/2/1
f 28/2/1 20/2/1 27/2/1
f 29/2/1 20/2/1 28/2/1
f 30/2/1 20/2/1 29/2/1
f 31/1/1 22/1/1 21/1/1
f 32/2/1 23/2/1 22/2/1
f 32/1/1 22/1/1 31/1/1
f 33/1/1 24/1/1 23/1/1
f 33/2/1 23/2/1 32/2/1
f 34/2/1 25/2/1 24/2/1
f 34/1/1 24/1/1 33/1/1
f 35/1/1 26/1/1 25/1/1
f 35/2/1 25/2/1 34/2/1
f 36/2/1 27/2/1 26/2/1
f 36/1/1 26/1/1 35/1/1
f 37/1/1 28/1/1 27/1/1
f 37/2/1 27/2/1 36/2/1
f 38/2/1 29/2/1 28/2/1
f 38/1/1 28/1/1 37/1/1
f 39/1/1 30/1/1 29/1/1
f 39/2/1 29/2/1 38/2/1
f 40/1/1 30/1/1 39/1/1
f 41/2/1 32/2/1 31/2/1
f 41/2/1 33/2/1 32/2/1
f 41/2/1 40/2/1 39/2/1
f 41/2/1 39/2/1 38/2/1
f 41/2/1 38/2/1 37/2/1
f 41/2/1 37/2/1 36/2/1
f 41/2/1 36/2/1 35/2/1
f 41/2/1 35/2/1 34/2/1
f 41/2/1 34/2/1 33/2/1
f 42/2/1 40/2/1 41/2/1
f 43/2/1 40/2/1 42/2/1
f 44/2/1 40/2/1 43/2/1
f 45/2/1 40/2/1 44/2/1
f 46/2/1 40/2/1 45/2/1
f 47/2/1 40/2/1 46/2/1
f 48/2/1 40/2/1 47/2/1
f 49/2/1 40/2/1 48/2/1
f 50/2/1 40/2/1 49/2/1
f 51/1/1 42/1/1 41/1/1
f 52/2/1 43/2/1 42/2/1
f 52/1/1 42/1/1 51/1/1
f 53/1/1 44/1/1 43/1/1
f 53/2/1 43/2/1 52/2/1
f 54/2/1 45/2/1 44/2/1
f 54/1/1 44/1/1 53/1/1
f 55/1/1 46/1/1 45/1/1
f 55/2/1 45/2/1 54/2/1
f 56/2/1 47/2/1 46/2/1
f 56/1/1 46/1/1 55/1/1
f 57/1/1 48/1/1 47/1/1
f 57/2/1 47/2/1 56/2/1
f 58/2/1 49/2/1 48/2/1
f 58/1/1 48/1/1 57/1/1
f 59/1/1 50/1/1 49/1/1
f 59/2/1 49/2/1 58/2/1
f 60/1/1 50/1/1 59/1/1
f 61/2/1 52/2/1 51/2/1
f 61/2/1 53/2/1 52/2/1
f 61/2/1 60/2/1 59/2/1
f 61/2/1 59/2/1 58/2/1
f 61/2/1 58/2/1 57/2/1
f 61/2/1 57/2/1 56/2/1
f 61/2/1 56/2/1 55/2/1
f 61/2/1 55/2/1 54/2/1
f 61/2/1 54/2/1 53/2/1
f 62/2/1 60/2/1 61/2/1
f 63/2/1 60/2/1 62/2/1
f 64/2/1 60/2/1 63/2/1
f 65/2/1 60/2/1 64/2/1
f 66/2/1 60/2/1 65/2/1
f 67/2/1 60/2/1 66/2/1
f 68/2/1 60/2/1 67/2/1
f 69/2/1 60/2/1 68/2/1
f 70/2/1 60/2/1 69/2/1
f 71/1/1 62/1/1 61/1/1
f 72/2/1 63/2/1 62/2/1
f 72/1/1 62/1/1 71/1/1
f 73/1/1 64/1/1 63/1/1
f 73/2/1 63/2/1 72/2/1
f 74/2/1 65/2/1 64/2/1
f 74/1/1 64/1/1 73/1/1
f 75/1/1 66/1/1 65/1/1
f 75/2/1 65/2/1 74/2/1
f 76/2/1 67/2/1 66/2/1
f 76/1/1 66/1/1 75/1/1
f 77/1/1 68/1/1 67/1/1
f 77/2/1 67/2/1 76/2/1
f 78/2/1 69/2/1 68/2/1
f 78/1/1 68/1/1 77/1/1
f 79/1/1 70/1/1 69/1/1
f 79/2/1 69/2/1 78/2/1
f 80/1/1 70/1/1 79/1/1
f 81/2/1 72/2/1 71/2/1
f 81/2/1 73/2/1 72/2/1
f 81/2/1 80/2/1 79/2/1
f 81/2/1 79/2/1 78/2/1
f 81/2/1 78/2/1 77/2/1
f 81/2/1 77/2/1 76/2/1
f 81/2/1 76/2/1 75/2/1
f 81/2/1 75/2/1 74/2/1
f 81/2/1 74/2/1 73/2/1
f 82/2/1 80/2/1 81/2/1
f 83/2/1 80/2/1 82/2/1
f 84/2/1 80/2/1 83/2/1
f 85/2/1 80/2/1 84/2/1
f 86/2/1 80/2/1 85/2/1
f 87/2/1 80/2/1 86/2/1
f 88/2/1 80/2/1 87/2/1
f 89/2/1 80/2/1 88/2/1
f 90/2/1 80/2/1 89/2/1
f 91/1/1 82/1/1 81/1/1
f 92/2/1 83/2/1 82/2/1
f 92/1/1 82/1/1 91/1/1
f 93/1/1 84/1/1 83/1/1
f 93/2/1 83/2/1 92/2/1
f 94/2/1 85/2/1 84/2/1
f 94/1/1 84/1/1 93/1/1
f 95/1/1 86/1/1 85/1/1
f 95/2/1 85/2/1 94/2/1
f 96/2/1 87/2/1 86/2/1
f 96/1/1 86/1/1 95/1/1
f 97/1/1 88/1/1 87/1/1
f 97/2/1 87/2/1 96/2/1
f 98/2/1 89/2/1 88/2/1
f 98/1/1 88/1/1 97/1/1
f 99/1/1 90/1/1 89/1/1
f 99/2/1 89/2/1 98/2/1
f 100/1/1 90/1/1 99/1/1
f 101/2/2 102/2/2 103/2/2
f 103/2/2 102/2/2 104/2/2
f 115/1/3 106/1/3 105/1/3
f 116/2/3 107/2/3 106/2/3
f 116/1/3 106/1/3 115/1/3
f 117/1/3 108/1/3 107/1/3
f 117/2/3 107/2/3 116/2/3
f 118/2/3 109/2/3 108/2/3
f 118/1/3 108/1/3 117/1/3
f 119/1/3 110/1/3 109/1/3
f 119/2/3 109/2/3 118/2/3
f 120/2/3 111/2/3 110/2/3
f 120/1/3 110/1/3 119/1/3
f 121/1/3 112/1/3 111/1/3
f 121/2/3 111/2/3 120/2/3
f 122/2/3 113/2/3 112/2/3
f 122/1/3 112/1/3 121/1/3
f 123/1/3 114/1/3 113/1/3
f 123/2/3 113/2/3 122/2/3
f 124/1/3 114/1/3 123/1/3
f 125/2/3 122/2/3 121/2/3
f 125/2/3 116/2/3 115/2/3
f 125/2/3 124/2/3 123/2/3
f 125/2/3 123/2/3 122/2/3
f 125/2/3 121/2/3 120/2/3
f 125/2/3 120/2/3 119/2/3
f 125/2/3 119/2/3 118/2/3
f 125/2/3 118/2/3 117/2/3
f 125/2/3 117/2/3 116/2/3
f 126/2/3 124/2/3 125/2/3
f 127/2/3 124/2/3 126/2/3
f 128/2/3 124/2/3 127/2/3
f 129/2/3 124/2/3 128/2/3
f 130/2/3 124/2/3 129/2/3
f 131/2/3 124/2/3 130/2/3
f 132/2/3 124/2/3 131/2/3
f 133/2/3 125/2/3 115/2/3
f 133/1/3 126/1/3 125/1/3
f 134/2/3 127/2/3 126/2/3
f 134/1/3 126/1/3 133/1/3
f 135/1/3 128/1/3 127/1/3
f 135/2/3 127/2/3 134/2/3
f 136/2/3 129/2/3 128/2/3
f 136/1/3 128/1/3 135/1/3
f 137/1/3 130/1/3 129/1/3
f 137/2/3 129/2/3 136/2/3
f 138/2/3 131/2/3 130/2/3
f 138/1/3 130/1/3 137/1/3
f 139/1/3 132/1/3 131/1/3
f 139/2/3 131/2/3 138/2/3
f 140/2/3 124/2/3 132/2/3
f 140/1/3 132/1/3 139/1/3
f 141/2/3 139/2/3 138/2/3
f 141/2/3 138/2/3 137/2/3
f 141/2/3 140/2/3 139/2/3
f 141/2/3 137/2/3 136/2/3
f 141/2/3 136/2/3 135/2/3
f 141/2/3 135/2/3 134/2/3
f 141/2/3 134/2/3 133/2/3
f 141/2/3 133/2/3 115/2/3
f 142/2/3 140/2/3 141/2/3
f 143/2/3 140/2/3 142/2/3
f 144/2/3 140/2/3 143/2/3
f 145/2/3 140/2/3 144/2/3
f 146/2/3 140/2/3 145/2/3
f 147/2/3 140/2/3 146/2/3
f 148/2/3 140/2/3 147/2/3
f 149/2/3 140/2/3 148/2/3
f 150/2/3 124/2/3 140/2/3
f 150/2/3 140/2/3 149/2/3
f 151/1/3 142/1/3 141/1/3
f 152/2/3 143/2/3 142/2/3
f 152/1/3 142/1/3 151/1/3
f 153/1/3 144/1/3 143/1/3
f 153/2/3 143/2/3 152/2/3
f 154/2/3 145/2/3 144/2/3
f 154/1/3 144/1/3 153/1/3
f 155/1/3 146/1/3 145/1/3
f 155/2/3 145/2/3 154/2/3
f 156/2/3 147/2/3 146/2/3
f 156/1/3 146/1/3 155/1/3
f 157/1/3 148/1/3 147/1/3
f 157/2/3 147/2/3 156/2/3
f 158/2/3 149/2/3 148/2/3
f 158/1/3 148/1/3 157/1/3
f 159/1/3 150/1/3 149/1/3
f 159/2/3 149/2/3 158/2/3
f 160/1/3 150/1/3 159/1/3
f 161/2/3 157/2/3 156/2/3
f 161/2/3 152/2/3 151/2/3
f 161/2/3 160/2/3 159/2/3
f 161/2/3 159/2/3 158/2/3
f 161/2/3 158/2/3 157/2/3
f 161/2/3 156/2/3 155/2/3
f 161/2/3 155/2/3 154/2/3
f 161/2/3 154/2/3 153/2/3
f 161/2/3 153/2/3 152/2/3
f 162/2/3 160/2/3 161/2/3
f 163/2/3 160/2/3 162/2/3
f 164/2/3 160/2/3 163/2/3
f 165/2/3 160/2/3 164/2/3
f 166/2/3 160/2/3 165/2/3
f 167/2/3 160/2/3 166/2/3
f 168/2/3 160/2/3 167/2/3
f 169/2/3 161/2/3 151/2/3
f 169/1/3 162/1/3 161/1/3
f 170/2/3 163/2/3 162/2/3
f 170/1/3 162/1/3 169/1/3
f 171/1/3 164/1/3 163/1/3
f 171/2/3 163/2/3 170/2/3
f 172/2/3 165/2/3 164/2/3
f 172/1/3 164/1/3 171/1/3
f 173/1/3 166/1/3 165/1/3
f 173/2/3 165/2/3 172/2/3
f 174/2/3 167/2/3 166/2/3
f 174/1/3 166/1/3 173/1/3
f 175/1/3 168/1/3 167/1/3
f 175/2/3 167/2/3 174/2/3
f 176/2/3 160/2/3 168/2/3
f 176/1/3 168/1/3 175/1/3
f 177/2/3 175/2/3 174/2/3
f 177/2/3 174/2/3 173/2/3
f 177/2/3 176/2/3 175/2/3
f 177/2/3 173/2/3 172/2/3
f 177/2/3 172/2/3 171/2/3
f 177/2/3 171/2/3 170/2/3
f 177/2/3 170/2/3 169/2/3
f 177/2/3 169/2/3 151/2/3
f 178/2/3 160/2/3 176/2/3
f 178/2/3 176/2/3 177/2/3
f 179/1/4 180/1/4 189/1/4
f 180/2/4 181/2/4 190/2/4
f 189/1/4 180/1/4 190/1/4
f 181/1/4 182/1/4 191/1/4
f 190/2/4 181/2/4 191/2/4
f 182/2/4 183/2/4 192/2/4
f 191/1/4 182/1/4 192/1/4
f 183/1/4 184/1/4 193/1/4
f 192/2/4 183/2/4 193/2/4
f 184/2/4 185/2/4 194/2/4
f 193/1/4 184/1/4 194/1/4
f 185/1/4 186/1/4 195/1/4
f 194/2/4 185/2/4 195/2/4
f 186/2/4 187/2/4 196/2/4
f 195/1/4 186/1/4 196/1/4
f 187/1/4 188/1/4 197/1/4
f 196/2/4 187/2/4 197/2/4
f 197/1/4 188/1/4 198/1/4
f 195/2/4 196/2/4 199/2/4
f 189/2/4 190/2/4 199/2/4
f 197/2/4 198/2/4 199/2/4
f 196/2/4 197/2/4 199/2/4
f 194/2/4 195/2/4 199/2/4
f 193/2/4 194/2/4 199/2/4
f 192/2/4 193/2/4 199/2/4
f 191/2/4 192/2/4 199/2/4
f 190/2/4 191/2/4 199/2/4
f 199/2/4 198/2/4 200/2/4
f 200/2/4 198/2/4 201/2/4
f 201/2/4 198/2/4 202/2/4
f 202/2/4 198/2/4 203/2/4
f 203/2/4 198/2/4 204/2/4
f 204/2/4 198/2/4 205/2/4
f 205/2/4 198/2/4 206/2/4
f 206/2/4 198/2/4 207/2/4
f 207/2/4 198/2/4 208/2/4
f 199/1/4 200/1/4 209/1/4
f 200/2/4 201/2/4 210/2/4
f 209/1/4 200/1/4 210/1/4
f 201/1/4 202/1/4 211/1/4
f 210/2/4 201/2/4 211/2/4
f 202/2/4 203/2/4 212/2/4
f 211/1/4 202/1/4 212/1/4
f 203/1/4 204/1/4 213/1/4
f 212/2/4 203/2/4 213/2/4
f 204/2/4 205/2/4 214/2/4
f 213/1/4 204/1/4 214/1/4
f 205/1/4 206/1/4 215/1/4
f 214/2/4 205/2/4 215/2/4
f 206/2/4 207/2/4 216/2/4
f 215/1/4 206/1/4 216/1/4
f 207/1/4 208/1/4 217/1/4
f 216/2/4 207/2/4 217/2/4
f 217/1/4 208/1/4 218/1/4
f 209/2/4 210/2/4 219/2/4
f 210/2/4 211/2/4 219/2/4
f 217/2/4 218/2/4 219/2/4
f 216/2/4 217/2/4 219/2/4
f 215/2/4 216/2/4 219/2/4
f 214/2/4 215/2/4 219/2/4
f 213/2/4 214/2/4 219/2/4
f 212/2/4 213/2/4 219/2/4
f 211/2/4 212/2/4 219/2/4
f 219/2/4 218/2/4 220/2/4
f 220/2/4 218/2/4 221/2/4
f 221/2/4 218/2/4 222/2/4
f 222/2/4 218/2/4 223/2/4
f 223/2/4 218/2/4 224/2/4
f 224/2/4 218/2/4 225/2/4
f 225/2/4 218/2/4 226/2/4
f 226/2/4 218/2/4 227/2/4
f 227/2/4 218/2/4 228/2/4
f 219/1/4 220/1/4 229/1/4
f 220/2/4 221/2/4 230/2/4
f 229/1/4 220/1/4 230/1/4
f 221/1/4 222/1/4 231/1/4
f 230/2/4 221/2/4 231/2/4
f 222/2/4 223/2/4 232/2/4
f 231/1/4 222/1/4 232/1/4
f 223/1/4 224/1/4 233/1/4
f 232/2/4 223/2/4 233/2/4
f 224/2/4 225/2/4 234/2/4
f 233/1/4 224/1/4 234/1/4
f 225/1/4 226/1/4 235/1/4
f 234/2/4 225/2/4 235/2/4
f 226/2/4 227/2/4 236/2/4
f 235/1/4 226/1/4 236/1/4
f 227/1/4 228/1/4 237/1/4
f 236/2/4 227/2/4 237/2/4
f 237/1/4 228/1/4 238/1/4
f 229/2/4 230/2/4 239/2/4
f 230/2/4 231/2/4 239/2/4
f 237/2/4 238/2/4 239/2/4
f 236/2/4 237/2/4 239/2/4
f 235/2/4 236/2/4 239/2/4
f 234/2/4 235/2/4 239/2/4
f 233/2/4 234/2/4 239/2/4
f 232/2/4 233/2/4 239/2/4
f 231/2/4 232/2/4 239/2/4
f 239/2/4 238/2/4 240/2/4
f 240/2/4 238/2/4 241/2/4
f 241/2/4 238/2/4 242/2/4
f 242/2/4 238/2/4 243/2/4
f 243/2/4 238/2/4 244/2/4
f 244/2/4 238/2/4 245/2/4
f 245/2/4 238/2/4 246/2/4
f 246/2/4 238/2/4 247/2/4
f 247/2/4 238/2/4 248/2/4
f 239/1/4 240/1/4 249/1/4
f 240/2/4 241/2/4 250/2/4
f 249/1/4 240/1/4 250/1/4
f 241/1/4 242/1/4 251/1/4
f 250/2/4 241/2/4 251/2/4
f 242/2/4 243/2/4 252/2/4
f 251/1/4 242/1/4 252/1/4
f 243/1/4 244/1/4 253/1/4
f 252/2/4 243/2/4 253/2/4
f 244/2/4 245/2/4 254/2/4
f 253/1/4 244/1/4 254/1/4
f 245/1/4 246/1/4 255/1/4
f 254/2/4 245/2/4 255/2/4
f 246/2/4 247/2/4 256/2/4
f 255/1/4 246/1/4 256/1/4
f 247/1/4 248/1/4 257/1/4
f 256/2/4 247/2/4 257/2/4
f 257/1/4 248/1/4 258/1/4
f 249/2/4 250/2/4 259/2/4
f 250/2/4 251/2/4 259/2/4
f 257/2/4 258/2/4 259/2/4
f 256/2/4 257/2/4 259/2/4
f 255/2/4 256/2/4 259/2/4
f 254/2/4 255/2/4 259/2/4
f 253/2/4 254/2/4 259/2/4
f 252/2/4 253/2/4 259/2/4
f 251/2/4 252/2/4 259/2/4
f 259/2/4 258/2/4 260/2/4
f 266/2/5 263/2/5 262/2/5
f 267/2/5 263/2/5 266/2/5
f 268/2/5 265/2/5 264/2/5
f 269/2/5 265/2/5 268/2/5
f 270/1/5 262/1/5 261/1/5
f 271/2/5 266/2/5 262/2/5
f 271/1/5 262/1/5 270/1/5
f 272/2/5 263/2/5 267/2/5
f 272/1/5 264/1/5 263/1/5
f 273/2/5 268/2/5 264/2/5
f 273/1/5 264/1/5 272/1/5
f 274/2/5 271/2/5 270/2/5
f 275/2/5 266/2/5 271/2/5
f 275/2/5 271/2/5 274/2/5
f 276/2/5 272/2/5 267/2/5
f 276/2/5 273/2/5 272/2/5
f 277/2/5 268/2/5 273/2/5
f 277/2/5 273/2/5 276/2/5
f 278/1/5 267/1/5 266/1/5
f 278/2/5 266/2/5 275/2/5
f 279/2/5 276/2/5 267/2/5
f 279/1/5 267/1/5 278/1/5
f 280/2/5 268/2/5 277/2/5
f 280/1/5 269/1/5 268/1/5
f 281/2/5 265/2/5 269/2/5
f 281/1/5 269/1/5 280/1/5
f 282/2/5 278/2/5 275/2/5
f 282/2/5 279/2/5 278/2/5
f 283/2/5 276/2/5 279/2/5
f 283/2/5 279/2/5 282/2/5
f 284/2/5 280/2/5 277/2/5
f 284/2/5 281/2/5 280/2/5
f 285/2/5 265/2/5 281/2/5
f 285/2/5 281/2/5 284/2/5
f 286/1/5 275/1/5 274/1/5
f 287/2/5 282/2/5 275/2/5
f 287/1/5 275/1/5 286/1/5
f 288/2/5 276/2/5 283/2/5
f 288/1/5 277/1/5 276/1/5
f 289/2/5 284/2/5 277/2/5
f 289/1/5 277/1/5 288/1/5
f 290/2/5 287/2/5 286/2/5
f 291/2/5 282/2/5 287/2/5
f 291/2/5 287/2/5 290/2/5
f 292/2/5 288/2/5 283/2/5
f 292/2/5 289/2/5 288/2/5
f 293/2/5 284/2/5 289/2/5
f 293/2/5 289/2/5 292/2/5
f 294/2/5 282/2/5 291/2/5
f 294/1/5 283/1/5 282/1/5
f 295/2/5 292/2/5 283/2/5
f 295/1/5 283/1/5 294/1/5
f 296/2/5 284/2/5 293/2/5
f 296/1/5 285/1/5 284/1/5
f 297/2/5 265/2/5 285/2/5
f 297/1/5 285/1/5 296/1/5
f 298/2/5 294/2/5 291/2/5
f 298/2/5 295/2/5 294/2/5
f 299/2/5 292/2/5 295/2/5
f 299/2/5 295/2/5 298/2/5
f 300/2/5 296/2/5 293/2/5
f 300/2/5 297/2/5 296/2/5
f 301/2/5 265/2/5 297/2/5
f 301/2/5 297/2/5 300/2/5
f 302/1/5 291/1/5 290/1/5
f 303/2/5 298/2/5 291/2/5
f 303/1/5 291/1/5 302/1/5
f 304/1/5 293/1/5 292/1/5
f 304/2/5 292/2/5 299/2/5
f 305/2/5 300/2/5 293/2/5
f 305/1/5 293/1/5 304/1/5
f 306/2/5 303/2/5 302/2/5
f 307/2/5 298/2/5 303/2/5
f 307/2/5 303/2/5 306/2/5
f 308/2/5 304/2/5 299/2/5
f 308/2/5 305/2/5 304/2/5
f 309/2/5 300/2/5 305/2/5
f 309/2/5 305/2/5 308/2/5
f 310/2/5 298/2/5 307/2/5
f 310/1/5 299/1/5 298/1/5
f 311/2/5 308/2/5 299/2/5
f 311/1/5 299/1/5 310/1/5
f 312/2/5 300/2/5 309/2/5
f 312/1/5 301/1/5 300/1/5
f 313/2/5 265/2/5 301/2/5
f 313/1/5 301/1/5 312/1/5
f 314/2/5 310/2/5 307/2/5
f 314/2/5 311/2/5 310/2/5
f 315/2/5 308/2/5 311/2/5
f 315/2/5 311/2/5 314/2/5
f 316/2/5 312/2/5 309/2/5
f 316/2/5 313/2/5 312/2/5
f 317/2/5 265/2/5 313/2/5
f 317/2/5 313/2/5 316/2/5
f 318/1/5 307/1/5 306/1/5
f 319/2/5 314/2/5 307/2/5
f 319/1/5 307/1/5 318/1/5
f 320/1/5 309/1/5 308/1/5
f 320/2/5 308/2/5 315/2/5
f 321/2/5 316/2/5 309/2/5
f 321/1/5 309/1/5 320/1/5
f 322/2/5 319/2/5 318/2/5
f 323/2/5 314/2/5 319/2/5
f 323/2/5 319/2/5 322/2/5
f 324/2/5 320/2/5 315/2/5
f 324/2/5 321/2/5 320/2/5
f 325/2/5 316/2/5 321/2/5
f 325/2/5 321/2/5 324/2/5
f 326/1/5 323/1/5 322/1/5
f 327/2/5 314/2/5 323/2/5
f 327/1/5 323/1/5 326/1/5
f 328/1/5 315/1/5 314/1/5
f 328/2/5 314/2/5 327/2/5
f 329/2/5 324/2/5 315/2/5
f 329/1/5 315/1/5 328/1/5
f 330/1/5 325/1/5 324/1/5
f 330/2/5 324/2/5 329/2/5
f 331/2/5 316/2/5 325/2/5
f 331/1/5 325/1/5 330/1/5
f 332/1/5 317/1/5 316/1/5
f 332/2/5 316/2/5 331/2/5
f 333/2/5 265/2/5 317/2/5
f 333/1/5 317/1/5 332/1/5
f 334/2/5 265/2/5 333/2/5
f 336/2/6 337/2/6 340/2/6
f 340/2/6 337/2/6 341/2/6
f 338/2/6 339/2/6 342/2/6
f 342/2/6 339/2/6 343/2/6
f 335/1/6 336/1/6 344/1/6
f 336/2/6 340/2/6 345/2/6
f 344/1/6 336/1/6 345/1/6
f 341/2/6 337/2/6 346/2/6
f 337/1/6 338/1/6 346/1/6
f 338/2/6 342/2/6 347/2/6
f 346/1/6 338/1/6 347/1/6
f 344/2/6 345/2/6 348/2/6
f 345/2/6 340/2/6 349/2/6
f 348/2/6 345/2/6 349/2/6
f 341/2/6 346/2/6 350/2/6
f 346/2/6 347/2/6 350/2/6
f 347/2/6 342/2/6 351/2/6
f 350/2/6 347/2/6 351/2/6
f 340/1/6 341/1/6 352/1/6
f 349/2/6 340/2/6 352/2/6
f 341/2/6 350/2/6 353/2/6
f 352/1/6 341/1/6 353/1/6
f 351/2/6 342/2/6 354/2/6
f 342/1/6 343/1/6 354/1/6
f 343/2/6 339/2/6 355/2/6
f 354/1/6 343/1/6 355/1/6
f 349/2/6 352/2/6 356/2/6
f 352/2/6 353/2/6 356/2/6
f 353/2/6 350/2/6 357/2/6
f 356/2/6 353/2/6 357/2/6
f 351/2/6 354/2/6 358/2/6
f 354/2/6 355/2/6 358/2/6
f 355/2/6 339/2/6 359/2/6
f 358/2/6 355/2/6 359/2/6
f 348/1/6 349/1/6 360/1/6
f 349/2/6 356/2/6 361/2/6
f 360/1/6 349/1/6 361/1/6
f 357/2/6 350/2/6 362/2/6
f 350/1/6 351/1/6 362/1/6
f 351/2/6 358/2/6 363/2/6
f 362/1/6 351/1/6 363/1/6
f 360/2/6 361/2/6 364/2/6
f 361/2/6 356/2/6 365/2/6
f 364/2/6 361/2/6 365/2/6
f 357/2/6 362/2/6 366/2/6
f 362/2/6 363/2/6 366/2/6
f 363/2/6 358/2/6 367/2/6
f 366/2/6 363/2/6 367/2/6
f 365/2/6 356/2/6 368/2/6
f 356/1/6 357/1/6 368/1/6
f 357/2/6 366/2/6 369/2/6
f 368/1/6 357/1/6 369/1/6
f 367/2/6 358/2/6 370/2/6
f 358/1/6 359/1/6 370/1/6
f 359/2/6 339/2/6 371/2/6
f 370/1/6 359/1/6 371/1/6
f 365/2/6 368/2/6 372/2/6
f 368/2/6 369/2/6 372/2/6
f 369/2/6 366/2/6 373/2/6
f 372/2/6 369/2/6 373/2/6
f 367/2/6 370/2/6 374/2/6
f 370/2/6 371/2/6 374/2/6
f 371/2/6 339/2/6 375/2/6
f 374/2/6 371/2/6 375/2/6
f 364/1/6 365/1/6 376/1/6
f 365/2/6 372/2/6 377/2/6
f 376/1/6 365/1/6 377/1/6
f 366/1/6 367/1/6 378/1/6
f 373/2/6 366/2/6 378/2/6
f 367/2/6 374/2/6 379/2/6
f 378/1/6 367/1/6 379/1/6
f 376/2/6 377/2/6 380/2/6
f 377/2/6 372/2/6 381/2/6
f 380/2/6 377/2/6 381/2/6
f 373/2/6 378/2/6 382/2/6
f 378/2/6 379/2/6 382/2/6
f 379/2/6 374/2/6 383/2/6
f 382/2/6 379/2/6 383/2/6
f 381/2/6 372/2/6 384/2/6
f 372/1/6 373/1/6 384/1/6
f 373/2/6 382/2/6 385/2/6
f 384/1/6 373/1/6 385/1/6
f 383/2/6 374/2/6 386/2/6
f 374/1/6 375/1/6 386/1/6
f 375/2/6 339/2/6 387/2/6
f 386/1/6 375/1/6 387/1/6
f 381/2/6 384/2/6 388/2/6
f 384/2/6 385/2/6 388/2/6
f 385/2/6 382/2/6 389/2/6
f 388/2/6 385/2/6 389/2/6
f 383/2/6 386/2/6 390/2/6
f 386/2/6 387/2/6 390/2/6
f 387/2/6 339/2/6 391/2/6
f 390/2/6 387/2/6 391/2/6
f 380/1/6 381/1/6 392/1/6
f 381/2/6 388/2/6 393/2/6
f 392/1/6 381/1/6 393/1/6
f 382/1/6 383/1/6 394/1/6
f 389/2/6 382/2/6 394/2/6
f 383/2/6 390/2/6 395/2/6
f 394/1/6 383/1/6 395/1/6
f 392/2/6 393/2/6 396/2/6
f 393/2/6 388/2/6 397/2/6
f 396/2/6 393/2/6 397/2/6
f 389/2/6 394/2/6 398/2/6
f 394/2/6 395/2/6 398/2/6
f 395/2/6 390/2/6 399/2/6
f 398/2/6 395/2/6 399/2/6
f 396/1/6 397/1/6 400/1/6
f 397/2/6 388/2/6 401/2/6
f 400/1/6 397/1/6 401/1/6
f 388/1/6 389/1/6 402/1/6
f 401/2/6 388/2/6 402/2/6
f 389/2/6 398/2/6 403/2/6
f 402/1/6 389/1/6 403/1/6
f 398/1/6 399/1/6 404/1/6
f 403/2/6 398/2/6 404/2/6
f 399/2/6 390/2/6 405/2/6
f 404/1/6 399/1/6 405/1/6
f 390/1/6 391/1/6 406/1/6
f 405/2/6 390/2/6 406/2/6
f 391/2/6 339/2/6 407/2/6
f 406/1/6 391/1/6 407/1/6
f 407/2/6 339/2/6 408/2/6
